#define xdp_icon_width 50
#define xdp_icon_height 50
static char xdp_icon_bits[] = {
  0x00, 0x00, 0x00, 0x00, 0x00, 0x00, 0x00, 0x00, 0x00, 0x00, 0x00, 0x00, 
  0x00, 0x00, 0x00, 0x00, 0x00, 0x00, 0x00, 0x00, 0x00, 0x00, 0x00, 0x00, 
  0x00, 0x00, 0x00, 0x00, 0x00, 0x00, 0x00, 0x00, 0x00, 0x00, 0x00, 0x00, 
  0x00, 0x00, 0x00, 0x00, 0x00, 0x00, 0x00, 0x00, 0x00, 0x00, 0x00, 0x00, 
  0x00, 0x00, 0x00, 0x00, 0x00, 0x00, 0x00, 0x00, 0x00, 0x00, 0x00, 0x00, 
  0x00, 0x00, 0x00, 0x00, 0x00, 0x00, 0x00, 0x00, 0x00, 0x00, 0x00, 0x00, 
  0x00, 0x00, 0x00, 0x00, 0x00, 0x70, 0x80, 0x73, 0xfc, 0xff, 0xff, 0x00, 
  0xf8, 0x80, 0x73, 0xfe, 0xff, 0xff, 0x00, 0xf8, 0x81, 0x73, 0x0f, 0x00, 
  0x0e, 0x00, 0xb8, 0x83, 0x73, 0x07, 0x00, 0x0e, 0x00, 0x38, 0x87, 0x73, 
  0x0e, 0x00, 0x0e, 0x00, 0x38, 0x8f, 0x73, 0xfe, 0x1f, 0x0e, 0x00, 0x38, 
  0x9e, 0x73, 0xfc, 0x3f, 0x0e, 0x00, 0x38, 0xbc, 0x73, 0x00, 0x70, 0x0e, 
  0x00, 0x38, 0xf8, 0x73, 0x00, 0x70, 0x0e, 0x00, 0x38, 0xf0, 0xf3, 0x00, 
  0x70, 0x0e, 0x00, 0x38, 0xe0, 0xe3, 0xff, 0x3f, 0x0e, 0x00, 0x38, 0xc0, 
  0xc1, 0xff, 0x1f, 0x0e, 0x00, 0x00, 0x00, 0x00, 0x00, 0x00, 0x00, 0x00, 
  0x00, 0x00, 0x00, 0x00, 0x00, 0x00, 0x00, 0x7c, 0x00, 0x00, 0x00, 0x0c, 
  0x00, 0x00, 0xfc, 0x01, 0x06, 0x00, 0x0c, 0x60, 0x00, 0x8c, 0x01, 0x06, 
  0x00, 0x0c, 0x60, 0x00, 0x0c, 0x7b, 0xef, 0xf9, 0xcc, 0xf7, 0x00, 0x0c, 
  0xc3, 0x06, 0x9b, 0xed, 0x6e, 0x00, 0x0c, 0xf3, 0xc6, 0x9b, 0x6d, 0x6c, 
  0x00, 0x8c, 0xd9, 0x66, 0x9b, 0x6d, 0x6c, 0x00, 0xfc, 0xd9, 0x66, 0x9b, 
  0xed, 0x6e, 0x00, 0xfc, 0xf0, 0xce, 0xfb, 0xcc, 0xe7, 0x00, 0x00, 0x00, 
  0x00, 0x18, 0x00, 0x00, 0x00, 0x00, 0x00, 0x00, 0x18, 0x00, 0x00, 0x00, 
  0x00, 0x00, 0x00, 0x18, 0x00, 0x00, 0x00, 0x00, 0x00, 0x00, 0x00, 0x00, 
  0x00, 0x00, 0x00, 0x00, 0x00, 0x00, 0x00, 0x00, 0x00, 0x00, 0x00, 0x00, 
  0x00, 0x00, 0x00, 0x00, 0x00, 0x00, 0x00, 0x00, 0x00, 0x00, 0x00, 0x00, 
  0x00, 0x00, 0x00, 0x00, 0x00, 0x00, 0x00, 0x00, 0x00, 0x00, 0x00, 0x00, 
  0x00, 0x00, 0x00, 0x00, 0x00, 0x00, 0x00, 0x00, 0x00, 0x00, 0x00, 0x00, 
  0x00, 0x00, 0x00, 0x00, 0x00, 0x00, 0x00, 0x00, 0x00, 0x00, 0x00, 0x00, 
  0x00, 0x00, 0x00, 0x00, 0x00, 0x00, 0x00, 0x00, 0x00, 0x00, 0x00, 0x00, 
  0x00, 0x00, 0x00, 0x00, 0x00, 0x00, 0x00, 0x00, 0x00, 0x00, 0x00, 0x00, 
  0x00, 0x00, };
